<svg width="60" height="60" viewBox="0 0 60 60" fill="none" xmlns="http://www.w3.org/2000/svg">
<path d="M4.51924 15.2887L30 0.57735L55.4808 15.2887V44.7113L30 59.4226L4.51924 44.7113V15.2887Z" stroke="#734AE8"/>
<path d="M22.5469 24.25C22.5469 22.1797 24.1875 20.5 26.2578 20.5H32.7031C34.7734 20.5 36.4141 22.1797 36.4141 24.25C36.4141 25.5781 35.75 26.7109 34.7344 27.375C35.75 28.0781 36.4141 29.2109 36.4141 30.5391C36.4141 32.5703 34.7734 34.25 32.7031 34.25H32.625C31.6484 34.25 30.75 33.8984 30.0859 33.2734V36.75C30.0859 38.8203 28.3672 40.5 26.2969 40.5C24.2266 40.5 22.5469 38.8594 22.5469 36.7891C22.5469 35.4609 23.2109 34.3281 24.2266 33.6641C23.2109 32.9609 22.5469 31.8281 22.5469 30.5391C22.5469 29.2109 23.2109 28.0781 24.2266 27.375C23.2109 26.7109 22.5469 25.5781 22.5469 24.25ZM28.875 28H26.2578C24.8906 28 23.7578 29.1328 23.7578 30.5391C23.7578 31.9062 24.8516 33.0391 26.2578 33.0391H28.875V28ZM30.0859 30.5391C30.0859 31.9062 31.2188 33.0391 32.625 33.0391H32.7031C34.0703 33.0391 35.2031 31.9062 35.2031 30.5391C35.2031 29.1328 34.0703 28 32.7031 28H32.625C31.2188 28 30.0859 29.1328 30.0859 30.5391ZM26.2578 34.25C24.8516 34.2891 23.7578 35.3828 23.7578 36.7891C23.7578 38.1562 24.8906 39.2891 26.2969 39.2891C27.7031 39.2891 28.875 38.1562 28.875 36.75V34.25H26.2578ZM26.2578 21.75C24.8906 21.75 23.7578 22.8828 23.7578 24.25C23.7578 25.6562 24.8906 26.7891 26.2578 26.7891H28.875V21.75H26.2578ZM30.0859 26.7891H32.7031C34.0703 26.7891 35.2031 25.6562 35.2031 24.25C35.2031 22.8828 34.0703 21.75 32.7031 21.75H30.0859V26.7891Z" fill="#734AE8"/>
</svg>
