<svg width="60" height="60" viewBox="0 0 60 60" fill="none" xmlns="http://www.w3.org/2000/svg">
<path d="M4.51924 15.2887L30 0.57735L55.4808 15.2887V44.7113L30 59.4226L4.51924 44.7113V15.2887Z" stroke="#734AE8"/>
<path d="M28.4375 26.7109H25.3516C23.7891 26.2812 20.2344 26.3984 20.2344 29.6406C20.2344 30.8125 20.8203 31.6328 21.6016 32.0234C20.625 32.9219 20.1562 33.3516 20.1562 33.9375C20.1562 34.3672 20.3125 34.7578 20.8594 34.9922C20.3125 35.5 20 35.8906 20 36.5938C20 37.8438 21.0938 38.5859 23.9453 38.5859C26.7188 38.5859 28.3203 37.5703 28.3203 35.7344C28.3203 33.4297 26.5625 33.5078 22.3828 33.2734L22.9297 32.4141C23.9844 32.7266 27.5391 32.8047 27.5391 29.7578C27.5391 29.0547 27.2656 28.5469 26.9531 28.1562L28.4375 28.0391V26.7109ZM25.9375 36.1641C25.9375 37.4141 21.8359 37.4141 21.8359 36.2422C21.8359 35.9297 22.0703 35.6562 22.2656 35.4219C25.3125 35.6172 25.9375 35.5391 25.9375 36.1641ZM23.9844 30.8906C21.9141 30.8906 21.9922 28.1172 24.0234 28.1172C25.9375 28.1172 26.0156 30.8906 23.9844 30.8906ZM29.1797 34.8359V33.5859C30.2344 33.4297 30.2344 33.5078 30.2344 33.1562V28.4688C30.2344 28.1562 30.1562 28.1953 29.1797 27.8438L29.3359 26.5547H32.6562V33.1562C32.6562 33.3906 32.6562 33.4297 32.8906 33.4688L33.7109 33.5859V34.8359H29.1797ZM31.2109 25.2656C30.3125 25.2656 29.8047 24.7578 29.8047 23.8594C29.8047 22.9609 30.3125 22.4531 31.2109 22.4531C32.1484 22.4531 32.6562 22.9609 32.6562 23.8594C32.6562 24.7578 32.1484 25.2656 31.2109 25.2656ZM40 34.2109C39.2969 34.5234 38.2812 34.8359 37.3828 34.8359C35.5078 34.8359 34.8047 34.0938 34.8047 32.2969V28.1172C34.8047 27.9219 34.8438 27.9609 33.5547 27.9609V26.5547C34.9609 26.3984 35.5078 25.6953 35.6641 23.9766H37.1875C37.1875 26.5547 37.1484 26.3984 37.3047 26.3984H39.5703V27.9609H37.1875V31.75C37.1875 32.0234 36.9922 33.7812 39.5703 32.8047L40 34.2109Z" fill="#734AE8"/>
</svg>
