<svg width="60" height="60" viewBox="0 0 60 60" fill="none" xmlns="http://www.w3.org/2000/svg">
<path d="M4.51924 15.2887L30 0.57735L55.4808 15.2887V44.7113L30 59.4226L4.51924 44.7113V15.2887Z" stroke="#734AE8"/>
<path d="M21.25 21.75V39.25H38.75V21.75H21.25ZM30.7422 35.4219C30.7422 37.1016 29.7656 37.8828 28.2812 37.8828C26.9922 37.8828 26.2109 37.2188 25.8203 36.3984L27.1875 35.5781C27.4219 36.0469 27.6562 36.4375 28.2422 36.4375C28.75 36.4375 29.1016 36.2031 29.1016 35.3828V29.7969H30.7422V35.4219ZM34.6484 37.8828C33.125 37.8828 32.1484 37.1797 31.6406 36.2031L33.0078 35.4609C33.3594 36.0078 33.7891 36.4375 34.6094 36.4375C35.2734 36.4375 35.7422 36.0859 35.7422 35.6172C35.7422 35.0703 35.2734 34.875 34.5312 34.5234L34.1016 34.3672C32.9297 33.8594 32.1484 33.2344 32.1484 31.8672C32.1484 30.6562 33.0859 29.7188 34.5703 29.7188C35.5859 29.7188 36.3672 30.0703 36.875 31.0078L35.625 31.8281C35.3125 31.3594 35.0391 31.125 34.5312 31.125C34.0625 31.125 33.75 31.4375 33.75 31.8281C33.75 32.3359 34.0625 32.5312 34.7656 32.8438L35.1953 33.0391C36.6016 33.625 37.3828 34.25 37.3828 35.6172C37.3828 37.1016 36.2109 37.8828 34.6484 37.8828Z" fill="#734AE8"/>
</svg>
