<svg width="60" height="60" viewBox="0 0 60 60" fill="none" xmlns="http://www.w3.org/2000/svg">
<path d="M4.51924 15.2887L30 0.57735L55.4808 15.2887V44.7113L30 59.4226L4.51924 44.7113V15.2887Z" stroke="#734AE8"/>
<path d="M30 40.3438C29.7266 40.3438 29.4531 40.3047 29.2188 40.1484L26.7969 38.7422C26.4453 38.5469 26.6406 38.4688 26.7578 38.4297C27.2266 38.2344 27.3438 38.2344 27.8516 37.9219C27.8906 37.8828 27.9688 37.9219 28.0078 37.9219L29.8828 39.0547C29.9219 39.0938 30.0391 39.0938 30.0781 39.0547L37.3047 34.875C37.3828 34.8359 37.4219 34.7578 37.4219 34.6797V26.3594C37.4219 26.2812 37.3828 26.2031 37.3047 26.1641L30.0781 21.9844C30.0391 21.9453 29.9219 21.9453 29.8828 21.9844L22.6562 26.1641C22.5781 26.2031 22.5391 26.2812 22.5391 26.3594V34.6797C22.5391 34.7578 22.5781 34.8359 22.6562 34.875L24.6484 36.0078C25.7031 36.5547 26.3672 35.9297 26.3672 35.2656V27.0625C26.3672 26.9453 26.4453 26.8672 26.5625 26.8672H27.5C27.6172 26.8672 27.6953 26.9453 27.6953 27.0625V35.2656C27.6953 36.7109 26.9141 37.5312 25.5859 37.5312C25.1562 37.5312 24.8047 37.5312 23.9062 37.0625L22.0312 36.0078C21.5625 35.7344 21.25 35.2266 21.25 34.6797V26.3594C21.25 25.8125 21.5625 25.3047 22.0312 25.0312L29.2188 20.8516C29.6875 20.6172 30.2734 20.6172 30.7422 20.8516L37.9688 25.0312C38.4375 25.3047 38.7109 25.8125 38.7109 26.3594V34.6797C38.7109 35.2266 38.4375 35.7344 37.9688 36.0078L30.7422 40.1484C30.5078 40.3047 30.2344 40.3438 30 40.3438ZM35.8203 32.1406C35.8203 30.5781 34.7656 30.1875 32.5391 29.875C30.3125 29.6016 30.0781 29.4453 30.0781 28.8984C30.0781 28.4688 30.2734 27.9219 31.9141 27.9219C33.3984 27.9219 33.9453 28.2344 34.1797 29.2109C34.1797 29.3281 34.2969 29.4062 34.375 29.4062H35.3125C35.3906 29.4062 35.4297 29.3672 35.4688 29.3281C35.5078 29.2891 35.5078 29.2109 35.5078 29.1719C35.3906 27.4531 34.2188 26.6328 31.9141 26.6328C29.8438 26.6328 28.6328 27.4922 28.6328 28.9766C28.6328 30.5391 29.8438 30.9688 31.8359 31.1641C34.1797 31.3984 34.375 31.75 34.375 32.2188C34.375 33.0391 33.7109 33.3516 32.2266 33.3516C30.3125 33.3516 29.8828 32.8828 29.7266 31.9453C29.7266 31.8281 29.6484 31.75 29.5312 31.75H28.5938C28.4766 31.75 28.3984 31.8672 28.3984 31.9844C28.3984 33.1953 29.0625 34.6406 32.2266 34.6406C34.4922 34.6406 35.8203 33.7422 35.8203 32.1406Z" fill="#734AE8"/>
</svg>
