<svg width="3155" height="3155" viewBox="0 0 3155 3155" fill="none" xmlns="http://www.w3.org/2000/svg">
<path fill-rule="evenodd" clip-rule="evenodd" d="M1701.43 2839.5C2442.11 2344.12 2894.72 1655.4 2834.08 727.374C2268.47 512.404 1606.07 501.43 1025.38 660.364C1552.97 578.448 2122.96 636.805 2624.85 826.073C2689.38 1635.59 2278.66 2308.48 1701.43 2839.5Z" fill="white"/>
<path fill-rule="evenodd" clip-rule="evenodd" d="M315.5 788.75C331.101 1669.8 662.849 2416.13 1470.1 2865.79C1953.4 2512.66 2318.42 1969.26 2497.71 1402.14C2282.66 1883.71 1927.73 2324.94 1500.12 2639.13C789.703 2256.53 448.647 1553.46 315.5 788.75Z" fill="white"/>
<path fill-rule="evenodd" clip-rule="evenodd" d="M2760.58 625.06C1976.23 212.685 1156.94 141.621 368.083 629.39C444.483 1222.34 746.13 1803.95 1158.99 2234.79C838.913 1814.06 622.468 1290.68 553.372 765.214C1236.01 329.621 2021.69 371.638 2760.62 625.06" fill="white"/>
<path fill-rule="evenodd" clip-rule="evenodd" d="M1878.04 1251H2275.82L2366.25 893.917H788.75L879.173 1251.01H1276.95V2023.8L1577.49 2313.67L1878.01 2023.85L1878.04 1251ZM1393.06 1251V1135.34H965.919L965.428 1133.44C955.397 1093.12 944.676 1052.97 934.221 1012.72L933.418 1009.59H2221.47L2220.66 1012.72C2210.27 1052.96 2199.58 1093.11 2189.52 1133.44L2189.15 1135.34H1761.94V1251.02V1976.09L1635.63 2099.82L1635.69 1138.45H1519.3L1519.37 2099.82L1393.13 1976.07L1393.06 1251Z" fill="white"/>
</svg>
