<svg width="60" height="60" viewBox="0 0 60 60" fill="none" xmlns="http://www.w3.org/2000/svg">
<path d="M4.51924 15.2887L30 0.57735L55.4808 15.2887V44.7113L30 59.4226L4.51924 44.7113V15.2887Z" stroke="#734AE8"/>
<path d="M36.3281 27.4531C38.4375 28.1562 40 29.3281 40 30.5C40 31.75 38.3594 32.9609 36.0938 33.7031C35.9766 33.7422 35.8594 33.7812 35.7422 33.8203C35.7812 33.9766 35.8203 34.1719 35.8594 34.3281C36.2891 36.5938 35.9375 38.4297 34.8828 39.0547C33.8672 39.6406 32.2266 39.0547 30.5469 37.6094C30.3516 37.4531 30.1953 37.2969 30 37.1406C29.8828 37.2578 29.7266 37.375 29.6094 37.4922C27.8906 39.0156 26.0938 39.6406 25.0391 39.0156C24.0234 38.4297 23.7109 36.7109 24.1016 34.5625C24.1797 34.3281 24.2188 34.0938 24.2578 33.8594C24.1016 33.8203 23.9062 33.7422 23.75 33.7031C21.5625 32.9609 20 31.7109 20 30.5C20 29.3281 21.4844 28.1953 23.5547 27.4531C23.7891 27.375 24.0234 27.2969 24.2969 27.2188C24.2188 27.0234 24.1797 26.7891 24.1406 26.5938C23.7109 24.3672 24.0234 22.6094 25.0391 22.0234C26.0938 21.3984 27.8906 22.0625 29.6875 23.625C29.7656 23.7422 29.8828 23.8203 30 23.9375C30.1562 23.7812 30.3125 23.625 30.4688 23.5078C32.1875 22.0234 33.8672 21.3984 34.8828 21.9844C35.9375 22.6094 36.25 24.4844 35.7812 26.7891C35.7422 26.9453 35.7031 27.1016 35.7031 27.2578C35.8984 27.2969 36.0938 27.375 36.3281 27.4531ZM31.0156 24.1328C30.8594 24.25 30.7422 24.4062 30.5859 24.5234C31.1719 25.1875 31.7188 25.8906 32.2266 26.6328C33.125 26.7109 33.9844 26.8281 34.8828 27.0234C34.9219 26.9062 34.9219 26.7891 34.9609 26.6328C35.3906 24.6406 35.1172 23.0781 34.4531 22.7266C33.8281 22.375 32.5 22.8438 31.0156 24.1328ZM26.5234 32.5312C26.3281 32.1797 26.1328 31.8672 25.9375 31.5156C25.7031 32.1016 25.5078 32.6875 25.3125 33.2344C25.8984 33.3906 26.5234 33.4688 27.1484 33.5469C26.9141 33.1953 26.7188 32.8828 26.5234 32.5312ZM25.3125 27.8438C25.5078 28.3906 25.7031 28.9375 25.9375 29.5234C26.1328 29.1719 26.3281 28.8594 26.5234 28.5078C26.7188 28.1953 26.9141 27.8438 27.1094 27.5312C26.4844 27.6094 25.8984 27.6875 25.3125 27.8438ZM26.4062 30.5391C26.6797 31.0469 26.9531 31.5938 27.2266 32.1016C27.5391 32.6094 27.8516 33.1172 28.2031 33.625C28.7891 33.6641 29.375 33.7031 30 33.7031C30.5859 33.7031 31.2109 33.6641 31.7969 33.625C32.1094 33.1172 32.4219 32.6094 32.7344 32.1016C33.0469 31.5938 33.3203 31.0469 33.5547 30.5C33.3203 29.9531 33.0078 29.4453 32.7344 28.9375C32.4219 28.4297 32.1094 27.9219 31.7578 27.4141C31.2109 27.375 30.5859 27.3359 30 27.3359C29.375 27.3359 28.7891 27.375 28.2031 27.4141C27.8516 27.9219 27.5391 28.4297 27.2266 28.9375C26.9531 29.4453 26.6406 29.9922 26.4062 30.5391ZM33.4375 32.5312C33.2422 32.8438 33.0469 33.1953 32.8516 33.5078C33.4766 33.4688 34.0625 33.3516 34.6875 33.1953C34.4922 32.6094 34.2578 32.0625 34.0234 31.4766C33.8281 31.8281 33.6719 32.1797 33.4375 32.5312ZM34.0234 29.5234C34.2578 28.9766 34.4531 28.4297 34.6484 27.8438C34.1016 27.7266 33.4766 27.6094 32.8516 27.5312C33.0469 27.8438 33.2422 28.1953 33.4375 28.5078C33.6328 28.8594 33.8281 29.1719 34.0234 29.5234ZM30 25.1484C29.6094 25.5781 29.2188 26.0469 28.8281 26.5547C29.6094 26.5156 30.3906 26.5156 31.1328 26.5547C30.7812 26.0469 30.3906 25.5781 30 25.1484ZM25.4688 22.7266C24.8438 23.1172 24.6094 24.5234 24.9609 26.3984C25 26.6328 25.0391 26.8281 25.1172 27.0234C25.9766 26.8281 26.8359 26.7109 27.7344 26.6328C28.2422 25.8906 28.7891 25.1875 29.4141 24.5234C29.2969 24.4453 29.2188 24.3672 29.1016 24.25C27.5781 22.9219 26.1328 22.375 25.4688 22.7266ZM24.4922 33.0391C24.7656 32.1797 25.0781 31.3203 25.4688 30.5391C25.1172 29.7188 24.7656 28.8984 24.5312 28.0391C24.2969 28.1172 24.0625 28.1562 23.8281 28.2344C22.0703 28.8594 20.8203 29.7969 20.8203 30.5C20.8984 30.9688 21.1719 31.3984 21.5625 31.6719C22.2266 32.2188 23.2031 32.6094 24.0234 32.8828C24.1797 32.9609 24.3359 33 24.4922 33.0391ZM29.0625 36.8672C29.1797 36.75 29.2969 36.6328 29.4141 36.5156C28.8281 35.8516 28.2422 35.1484 27.7344 34.4453C26.8359 34.3672 25.9766 34.25 25.0781 34.0547C25.0391 34.25 25 34.4844 24.9609 34.7188C24.6094 36.5547 24.8438 37.9219 25.4688 38.3125C25.9375 38.4688 26.4062 38.4688 26.8359 38.2344C27.6562 37.9219 28.3984 37.4531 29.0625 36.8672ZM30 35.9297C30.4297 35.4609 30.8203 34.9922 31.1719 34.4844C30.7812 34.5234 30.3906 34.5234 30 34.5234C29.6094 34.5234 29.2188 34.5234 28.8281 34.4844C29.2188 35.0312 29.6094 35.5 30 35.9297ZM35.1172 37.1016C35.2344 36.2422 35.1953 35.3438 35.0391 34.4844C35 34.3281 34.9609 34.1719 34.9219 34.0156C34.0234 34.2109 33.1641 34.3672 32.2656 34.4453C31.7578 35.1875 31.2109 35.8516 30.5859 36.5156C30.7812 36.6719 30.9375 36.8281 31.0938 36.9844C32.5391 38.1953 33.8672 38.6641 34.4922 38.3125C34.8438 38 35.0781 37.5703 35.1172 37.1016ZM35.8203 32.8828C37.7734 32.2578 39.1406 31.2422 39.1406 30.5C39.1406 29.7969 37.8516 28.8594 36.0547 28.2344C35.8594 28.1562 35.6641 28.1172 35.4688 28.0391C35.1953 28.8984 34.8828 29.7188 34.4922 30.5C34.8828 31.3203 35.2344 32.1406 35.5078 33C35.625 32.9609 35.7031 32.9219 35.8203 32.8828ZM30 32.2969C28.9844 32.2969 28.2031 31.5156 28.2031 30.5C28.2031 29.5234 28.9844 28.7422 30 28.7422C30.9766 28.7422 31.7578 29.5234 31.7578 30.5C31.7578 31.5156 30.9766 32.2969 30 32.2969Z" fill="#734AE8"/>
</svg>
