<svg width="20" height="19" viewBox="0 0 20 19" fill="none" xmlns="http://www.w3.org/2000/svg">
<path d="M16.3281 6.45312C18.4375 7.15625 20 8.32812 20 9.5C20 10.75 18.3594 11.9609 16.0938 12.7031C15.9766 12.7422 15.8594 12.7812 15.7422 12.8203C15.7812 12.9766 15.8203 13.1719 15.8594 13.3281C16.2891 15.5938 15.9375 17.4297 14.8828 18.0547C13.8672 18.6406 12.2266 18.0547 10.5469 16.6094C10.3516 16.4531 10.1953 16.2969 10 16.1406C9.88281 16.2578 9.72656 16.375 9.60938 16.4922C7.89062 18.0156 6.09375 18.6406 5.03906 18.0156C4.02344 17.4297 3.71094 15.7109 4.10156 13.5625C4.17969 13.3281 4.21875 13.0938 4.25781 12.8594C4.10156 12.8203 3.90625 12.7422 3.75 12.7031C1.5625 11.9609 0 10.7109 0 9.5C0 8.32812 1.48438 7.19531 3.55469 6.45312C3.78906 6.375 4.02344 6.29688 4.29688 6.21875C4.21875 6.02344 4.17969 5.78906 4.14062 5.59375C3.71094 3.36719 4.02344 1.60938 5.03906 1.02344C6.09375 0.398438 7.89062 1.0625 9.6875 2.625C9.76562 2.74219 9.88281 2.82031 10 2.9375C10.1562 2.78125 10.3125 2.625 10.4688 2.50781C12.1875 1.02344 13.8672 0.398438 14.8828 0.984375C15.9375 1.60938 16.25 3.48438 15.7812 5.78906C15.7422 5.94531 15.7031 6.10156 15.7031 6.25781C15.8984 6.29688 16.0938 6.375 16.3281 6.45312ZM11.0156 3.13281C10.8594 3.25 10.7422 3.40625 10.5859 3.52344C11.1719 4.1875 11.7188 4.89062 12.2266 5.63281C13.125 5.71094 13.9844 5.82812 14.8828 6.02344C14.9219 5.90625 14.9219 5.78906 14.9609 5.63281C15.3906 3.64062 15.1172 2.07812 14.4531 1.72656C13.8281 1.375 12.5 1.84375 11.0156 3.13281ZM6.52344 11.5312C6.32812 11.1797 6.13281 10.8672 5.9375 10.5156C5.70312 11.1016 5.50781 11.6875 5.3125 12.2344C5.89844 12.3906 6.52344 12.4688 7.14844 12.5469C6.91406 12.1953 6.71875 11.8828 6.52344 11.5312ZM5.3125 6.84375C5.50781 7.39062 5.70312 7.9375 5.9375 8.52344C6.13281 8.17188 6.32812 7.85938 6.52344 7.50781C6.71875 7.19531 6.91406 6.84375 7.10938 6.53125C6.48438 6.60938 5.89844 6.6875 5.3125 6.84375ZM6.40625 9.53906C6.67969 10.0469 6.95312 10.5938 7.22656 11.1016C7.53906 11.6094 7.85156 12.1172 8.20312 12.625C8.78906 12.6641 9.375 12.7031 10 12.7031C10.5859 12.7031 11.2109 12.6641 11.7969 12.625C12.1094 12.1172 12.4219 11.6094 12.7344 11.1016C13.0469 10.5938 13.3203 10.0469 13.5547 9.5C13.3203 8.95312 13.0078 8.44531 12.7344 7.9375C12.4219 7.42969 12.1094 6.92188 11.7578 6.41406C11.2109 6.375 10.5859 6.33594 10 6.33594C9.375 6.33594 8.78906 6.375 8.20312 6.41406C7.85156 6.92188 7.53906 7.42969 7.22656 7.9375C6.95312 8.44531 6.64062 8.99219 6.40625 9.53906ZM13.4375 11.5312C13.2422 11.8438 13.0469 12.1953 12.8516 12.5078C13.4766 12.4688 14.0625 12.3516 14.6875 12.1953C14.4922 11.6094 14.2578 11.0625 14.0234 10.4766C13.8281 10.8281 13.6719 11.1797 13.4375 11.5312ZM14.0234 8.52344C14.2578 7.97656 14.4531 7.42969 14.6484 6.84375C14.1016 6.72656 13.4766 6.60938 12.8516 6.53125C13.0469 6.84375 13.2422 7.19531 13.4375 7.50781C13.6328 7.85938 13.8281 8.17188 14.0234 8.52344ZM10 4.14844C9.60938 4.57812 9.21875 5.04688 8.82812 5.55469C9.60938 5.51562 10.3906 5.51562 11.1328 5.55469C10.7812 5.04688 10.3906 4.57812 10 4.14844ZM5.46875 1.72656C4.84375 2.11719 4.60938 3.52344 4.96094 5.39844C5 5.63281 5.03906 5.82812 5.11719 6.02344C5.97656 5.82812 6.83594 5.71094 7.73438 5.63281C8.24219 4.89062 8.78906 4.1875 9.41406 3.52344C9.29688 3.44531 9.21875 3.36719 9.10156 3.25C7.57812 1.92188 6.13281 1.375 5.46875 1.72656ZM4.49219 12.0391C4.76562 11.1797 5.07812 10.3203 5.46875 9.53906C5.11719 8.71875 4.76562 7.89844 4.53125 7.03906C4.29688 7.11719 4.0625 7.15625 3.82812 7.23438C2.07031 7.85938 0.820312 8.79688 0.820312 9.5C0.898438 9.96875 1.17188 10.3984 1.5625 10.6719C2.22656 11.2188 3.20312 11.6094 4.02344 11.8828C4.17969 11.9609 4.33594 12 4.49219 12.0391ZM9.0625 15.8672C9.17969 15.75 9.29688 15.6328 9.41406 15.5156C8.82812 14.8516 8.24219 14.1484 7.73438 13.4453C6.83594 13.3672 5.97656 13.25 5.07812 13.0547C5.03906 13.25 5 13.4844 4.96094 13.7188C4.60938 15.5547 4.84375 16.9219 5.46875 17.3125C5.9375 17.4688 6.40625 17.4688 6.83594 17.2344C7.65625 16.9219 8.39844 16.4531 9.0625 15.8672ZM10 14.9297C10.4297 14.4609 10.8203 13.9922 11.1719 13.4844C10.7812 13.5234 10.3906 13.5234 10 13.5234C9.60938 13.5234 9.21875 13.5234 8.82812 13.4844C9.21875 14.0312 9.60938 14.5 10 14.9297ZM15.1172 16.1016C15.2344 15.2422 15.1953 14.3438 15.0391 13.4844C15 13.3281 14.9609 13.1719 14.9219 13.0156C14.0234 13.2109 13.1641 13.3672 12.2656 13.4453C11.7578 14.1875 11.2109 14.8516 10.5859 15.5156C10.7812 15.6719 10.9375 15.8281 11.0938 15.9844C12.5391 17.1953 13.8672 17.6641 14.4922 17.3125C14.8438 17 15.0781 16.5703 15.1172 16.1016ZM15.8203 11.8828C17.7734 11.2578 19.1406 10.2422 19.1406 9.5C19.1406 8.79688 17.8516 7.85938 16.0547 7.23438C15.8594 7.15625 15.6641 7.11719 15.4688 7.03906C15.1953 7.89844 14.8828 8.71875 14.4922 9.5C14.8828 10.3203 15.2344 11.1406 15.5078 12C15.625 11.9609 15.7031 11.9219 15.8203 11.8828ZM10 11.2969C8.98438 11.2969 8.20312 10.5156 8.20312 9.5C8.20312 8.52344 8.98438 7.74219 10 7.74219C10.9766 7.74219 11.7578 8.52344 11.7578 9.5C11.7578 10.5156 10.9766 11.2969 10 11.2969Z" fill="#734AE8"/>
</svg>
