<svg width="48" height="48" viewBox="0 0 48 48" fill="none" xmlns="http://www.w3.org/2000/svg">
<rect opacity="0.3" width="48" height="48" fill="#734AE8"/>
<g clip-path="url(#clip0_186_2)">
<path d="M16.828 33L16.808 33.02L16.787 33H14.992C14.7288 32.9997 14.4765 32.895 14.2905 32.7088C14.1045 32.5226 14 32.2702 14 32.007V15.993C14.0018 15.7304 14.1069 15.479 14.2925 15.2932C14.4781 15.1074 14.7294 15.0021 14.992 15H33.008C33.556 15 34 15.445 34 15.993V32.007C33.9982 32.2696 33.8931 32.521 33.7075 32.7068C33.5219 32.8926 33.2706 32.9979 33.008 33H16.828ZM32 27V17H16V31L26 21L32 27ZM32 29.828L26 23.828L18.828 31H32V29.828ZM20 23C19.4696 23 18.9609 22.7893 18.5858 22.4142C18.2107 22.0391 18 21.5304 18 21C18 20.4696 18.2107 19.9609 18.5858 19.5858C18.9609 19.2107 19.4696 19 20 19C20.5304 19 21.0391 19.2107 21.4142 19.5858C21.7893 19.9609 22 20.4696 22 21C22 21.5304 21.7893 22.0391 21.4142 22.4142C21.0391 22.7893 20.5304 23 20 23Z" fill="#734AE8"/>
</g>
<defs>
<clipPath id="clip0_186_2">
<rect width="24" height="24" fill="white" transform="translate(12 12)"/>
</clipPath>
</defs>
</svg>
